<svg width="26" height="24" viewBox="0 0 26 24" fill="none" xmlns="http://www.w3.org/2000/svg">
<circle cx="13" cy="12" r="12" fill="white"/>
<path d="M12.9403 4.00341C12.8047 4.01887 12.6796 4.08649 12.5897 4.19294C12.4998 4.29939 12.4515 4.43696 12.4544 4.57851V6.84354C12.4534 6.91857 12.4668 6.99308 12.4937 7.06271C12.5207 7.13234 12.5607 7.19571 12.6115 7.24915C12.6622 7.30259 12.7227 7.34501 12.7894 7.37397C12.8561 7.40294 12.9277 7.41785 13 7.41785C13.0723 7.41785 13.1439 7.40294 13.2106 7.37397C13.2773 7.34501 13.3378 7.30259 13.3885 7.24915C13.4393 7.19571 13.4793 7.13234 13.5063 7.06271C13.5332 6.99308 13.5466 6.91857 13.5456 6.84354V4.57851C13.5472 4.4979 13.5323 4.41784 13.5018 4.3437C13.4712 4.26957 13.4258 4.20305 13.3685 4.1486C13.3112 4.09416 13.2434 4.05304 13.1695 4.028C13.0957 4.00296 13.0175 3.99458 12.9403 4.00341ZM6.92203 5.13593C6.83245 5.14784 6.74712 5.18264 6.67369 5.23721C6.60026 5.29179 6.54104 5.36443 6.50133 5.44862C6.46161 5.53281 6.44266 5.62592 6.44616 5.71959C6.44966 5.81326 6.4755 5.90456 6.52138 5.9853L7.61252 7.96722C7.64775 8.03234 7.695 8.0896 7.75158 8.13576C7.80815 8.18192 7.87293 8.21606 7.94221 8.23622C8.0115 8.25638 8.08393 8.26217 8.15538 8.25327C8.22682 8.24436 8.29587 8.22094 8.35859 8.18432C8.4213 8.1477 8.47645 8.09862 8.52089 8.03987C8.56532 7.98112 8.59816 7.91386 8.61754 7.84193C8.63692 7.77 8.64246 7.69483 8.63383 7.62068C8.6252 7.54653 8.60258 7.47488 8.56726 7.40981L7.47612 5.42789C7.42336 5.32649 7.34204 5.24422 7.24304 5.19204C7.14403 5.13987 7.03204 5.12029 6.92203 5.13593ZM18.9501 5.13593C18.8615 5.14482 18.7763 5.17607 18.702 5.22696C18.6278 5.27785 18.5666 5.34683 18.5239 5.42789L17.4327 7.40981C17.3975 7.47487 17.3749 7.5465 17.3663 7.62063C17.3577 7.69475 17.3633 7.76991 17.3827 7.84181C17.402 7.9137 17.4349 7.98093 17.4793 8.03964C17.5237 8.09836 17.5789 8.14742 17.6416 8.18403C17.7043 8.22063 17.7733 8.24406 17.8447 8.25297C17.9161 8.26189 17.9885 8.25611 18.0578 8.23597C18.1271 8.21584 18.1918 8.18175 18.2484 8.13564C18.305 8.08952 18.3522 8.03229 18.3875 7.96722L19.4786 5.9853C19.5297 5.89487 19.5555 5.79152 19.5533 5.68674C19.5511 5.58195 19.521 5.47986 19.4662 5.39182C19.4114 5.30377 19.3341 5.23325 19.243 5.18807C19.1519 5.14289 19.0505 5.12484 18.9501 5.13593ZM13 8.54231C8.38506 8.54231 4.20178 10.7908 1.13389 14.3996C1.04755 14.5026 1 14.6346 1 14.7712C1 14.9077 1.04755 15.0397 1.13389 15.1428C4.20175 18.7496 8.38695 21 13 21C17.6131 21 21.7983 18.7496 24.8661 15.1428C24.9524 15.0397 25 14.9077 25 14.7712C25 14.6346 24.9524 14.5026 24.8661 14.3996C21.7982 10.7908 17.6149 8.54231 13 8.54231ZM13 9.67483C17.1099 9.67483 20.8451 11.5993 23.6982 14.7711C20.8456 17.9397 17.1082 19.8675 13 19.8675C8.89177 19.8675 5.15439 17.9397 2.30175 14.7711C5.15491 11.5993 8.89007 9.67483 13 9.67483ZM13 11.0905C11.048 11.0905 9.45381 12.7451 9.45381 14.7711C9.45381 16.7972 11.048 18.4518 13 18.4518C14.952 18.4518 16.5462 16.7972 16.5462 14.7711C16.5462 12.7451 14.952 11.0905 13 11.0905ZM13 12.223C14.3624 12.223 15.4551 13.3571 15.4551 14.7711C15.4551 16.1851 14.3624 17.3193 13 17.3193C11.6376 17.3193 10.5449 16.1851 10.5449 14.7711C10.5449 13.3571 11.6376 12.223 13 12.223Z" fill="#020953" fill-opacity="0.7" stroke="#4E5387" stroke-opacity="0.7" stroke-width="0.5"/>
</svg>
