<svg width="24" height="24" viewBox="0 0 24 24" fill="none" xmlns="http://www.w3.org/2000/svg">
<path d="M2.41078 8.97882L11.4994 3.14824C11.8331 2.95059 12.2182 2.95059 12.5263 3.14824L21.6149 8.97882C21.8716 9.15176 22 9.42353 22 9.72V23.1353C22 23.6047 21.6149 24 21.1014 24H14.4262C13.9384 24 13.5276 23.6047 13.5276 23.1353V17.0082H10.4981V23.1353C10.4981 23.6047 10.0873 24 9.57381 24H2.89859C2.41078 24 2 23.6047 2 23.1353V9.72C2 9.39882 2.15404 9.12706 2.41078 8.97882ZM12.0128 4.92706L3.82285 10.1894V22.2459H8.67522V16.1188C8.67522 15.6494 9.08601 15.2541 9.57381 15.2541H14.4262C14.9397 15.2541 15.3504 15.6494 15.3504 16.1188V22.2459H20.2028V10.1894L12.0128 4.92706Z" fill="#020953" fill-opacity="0.7"/>
</svg>
